<svg width="30" height="31" viewBox="0 0 30 31" fill="none" xmlns="http://www.w3.org/2000/svg">
<path d="M8.75879 15.5C8.75879 15.2514 8.85756 15.0129 9.03338 14.8371C9.20919 14.6613 9.44765 14.5625 9.69629 14.5625H14.0625V10.1963C14.0625 9.94765 14.1613 9.70919 14.3371 9.53338C14.5129 9.35756 14.7514 9.25879 15 9.25879C15.2487 9.25879 15.4871 9.35756 15.663 9.53338C15.8388 9.70919 15.9375 9.94765 15.9375 10.1963V14.5625H20.3038C20.5524 14.5625 20.7909 14.6613 20.9667 14.8371C21.1425 15.0129 21.2413 15.2514 21.2413 15.5C21.2413 15.7487 21.1425 15.9871 20.9667 16.163C20.7909 16.3388 20.5524 16.4375 20.3038 16.4375H15.9375V20.8038C15.9375 21.0524 15.8388 21.2909 15.663 21.4667C15.4871 21.6425 15.2487 21.7413 15 21.7413C14.7514 21.7413 14.5129 21.6425 14.3371 21.4667C14.1613 21.2909 14.0625 21.0524 14.0625 20.8038V16.4375H9.69629C9.44765 16.4375 9.20919 16.3388 9.03338 16.163C8.85756 15.9871 8.75879 15.7487 8.75879 15.5Z" fill="url(#paint0_linear_261_29825)"/>
<path fill-rule="evenodd" clip-rule="evenodd" d="M9.14642 5.21117C13.037 4.77987 16.9633 4.77987 20.8539 5.21117C23.1377 5.46617 24.9814 7.26492 25.2489 9.56117C25.7114 13.5074 25.7114 17.4937 25.2489 21.4399C24.9802 23.7362 23.1364 25.5337 20.8539 25.7899C16.9633 26.2212 13.037 26.2212 9.14642 25.7899C6.86267 25.5337 5.01892 23.7362 4.75142 21.4399C4.28989 17.4938 4.28989 13.5073 4.75142 9.56117C5.01892 7.26492 6.86392 5.46617 9.14642 5.21117ZM20.6464 7.07367C16.8937 6.65771 13.1066 6.65771 9.35392 7.07367C8.65922 7.15074 8.0108 7.45976 7.51339 7.95082C7.01599 8.44187 6.69866 9.08627 6.61267 9.77992C6.1681 13.5811 6.1681 17.4212 6.61267 21.2224C6.69892 21.9158 7.01636 22.56 7.51375 23.0508C8.01113 23.5416 8.65941 23.8504 9.35392 23.9274C13.0752 24.3424 16.9252 24.3424 20.6464 23.9274C21.3407 23.8501 21.9887 23.5412 22.4858 23.0504C22.983 22.5596 23.3002 21.9157 23.3864 21.2224C23.831 17.4212 23.831 13.5811 23.3864 9.77992C23.3 9.08691 22.9826 8.44323 22.4855 7.9527C21.9884 7.46217 21.3405 7.15339 20.6464 7.07617" fill="url(#paint1_linear_261_29825)"/>
<defs>
<linearGradient id="paint0_linear_261_29825" x1="8.75879" y1="15.5" x2="21.2413" y2="15.5" gradientUnits="userSpaceOnUse">
<stop stop-color="#32C7C4"/>
<stop offset="1" stop-color="#532599"/>
</linearGradient>
<linearGradient id="paint1_linear_261_29825" x1="4.40527" y1="15.5006" x2="25.5958" y2="15.5006" gradientUnits="userSpaceOnUse">
<stop stop-color="#32C7C4"/>
<stop offset="1" stop-color="#532599"/>
</linearGradient>
</defs>
</svg>
