<svg width="27" height="20" viewBox="0 0 27 20" fill="none" xmlns="http://www.w3.org/2000/svg">
<path d="M12.489 0.42005C12.64 0.552731 12.7598 0.710384 12.8416 0.883978C12.9233 1.05757 12.9654 1.24369 12.9654 1.43165C12.9654 1.61962 12.9233 1.80573 12.8416 1.97932C12.7598 2.15292 12.64 2.31058 12.489 2.44325L5.53924 8.57118L25.3803 8.57118C25.8099 8.57118 26.2219 8.72165 26.5256 8.98948C26.8294 9.25731 27 9.62056 27 9.99933C27 10.3781 26.8294 10.7413 26.5256 11.0092C26.2219 11.277 25.8099 11.4275 25.3803 11.4275L5.53924 11.4275L12.489 17.5578C12.7933 17.8261 12.9642 18.19 12.9642 18.5694C12.9642 18.9488 12.7933 19.3127 12.489 19.581C12.1847 19.8493 11.7721 20 11.3417 20C10.9114 20 10.4987 19.8493 10.1945 19.581L0.476384 11.0121C0.325386 10.8794 0.205578 10.7218 0.12383 10.5482C0.0420809 10.3746 0 10.1885 0 10.0005C0 9.81255 0.0420809 9.62644 0.12383 9.45284C0.205578 9.27925 0.325386 9.12159 0.476384 8.98891L10.1945 0.42005C10.3449 0.286909 10.5237 0.181269 10.7206 0.109188C10.9175 0.0371056 11.1286 0 11.3417 0C11.5549 0 11.766 0.0371056 11.9629 0.109188C12.1597 0.181269 12.3385 0.286909 12.489 0.42005Z" fill="#32C7C4"/>
</svg>
