<svg width="27" height="33" viewBox="0 0 27 33" fill="none" xmlns="http://www.w3.org/2000/svg">
<path d="M25.7727 0H4.90909C3.60712 0 2.35847 0.534888 1.43784 1.487C0.517206 2.4391 0 3.73044 0 5.07692V31.7308C0 32.0674 0.129302 32.3902 0.35946 32.6283C0.589618 32.8663 0.90178 33 1.22727 33H23.3182C23.6437 33 23.9558 32.8663 24.186 32.6283C24.4162 32.3902 24.5455 32.0674 24.5455 31.7308C24.5455 31.3941 24.4162 31.0713 24.186 30.8333C23.9558 30.5953 23.6437 30.4615 23.3182 30.4615H2.45455C2.45455 29.7883 2.71315 29.1426 3.17347 28.6666C3.63378 28.1905 4.2581 27.9231 4.90909 27.9231H25.7727C26.0982 27.9231 26.4104 27.7894 26.6405 27.5513C26.8707 27.3133 27 26.9905 27 26.6538V1.26923C27 0.93261 26.8707 0.609776 26.6405 0.371749C26.4104 0.133722 26.0982 0 25.7727 0ZM24.5455 25.3846H4.90909C4.04715 25.3834 3.20027 25.6182 2.45455 26.0652V5.07692C2.45455 4.40368 2.71315 3.75801 3.17347 3.28196C3.63378 2.80591 4.2581 2.53846 4.90909 2.53846H24.5455V25.3846Z" fill="#302F30"/>
</svg>
