<svg width="28" height="25" viewBox="0 0 28 25" fill="none" xmlns="http://www.w3.org/2000/svg">
<path d="M24.0725 9.65375C25.2575 8.98625 25.8512 8.6525 26.175 8.11375C26.5 7.57625 26.5 6.9275 26.5 5.63V4.7675C26.5 3.11 26.5 2.28 25.95 1.765C25.4025 1.25 24.5187 1.25 22.75 1.25H5.25C3.4825 1.25 2.59875 1.25 2.05 1.765C1.5 2.28 1.5 3.11 1.5 4.76875V5.63125C1.5 6.9275 1.5 7.57625 1.825 8.11375C2.15 8.65125 2.74125 8.98625 3.9275 9.65375L7.56875 11.7037C8.36375 12.1512 8.7625 12.375 9.0475 12.6225C9.64 13.1362 10.005 13.7413 10.17 14.485C10.25 14.84 10.25 15.2575 10.25 16.0913V19.4287C10.25 20.565 10.25 21.1337 10.565 21.5762C10.88 22.02 11.44 22.2388 12.5575 22.6763C14.9062 23.5938 16.08 24.0525 16.915 23.53C17.75 23.0087 17.75 21.815 17.75 19.4275V16.09C17.75 15.2575 17.75 14.84 17.83 14.4837C17.987 13.7552 18.3824 13.0998 18.9538 12.6213" stroke="url(#paint0_linear_261_29821)" stroke-width="1.5" stroke-linecap="round"/>
<defs>
<linearGradient id="paint0_linear_261_29821" x1="1.5" y1="12.4999" x2="26.5" y2="12.4999" gradientUnits="userSpaceOnUse">
<stop stop-color="#32C7C4"/>
<stop offset="1" stop-color="#8A3DFF"/>
</linearGradient>
</defs>
</svg>
