<svg width="26" height="25" viewBox="0 0 26 25" fill="none" xmlns="http://www.w3.org/2000/svg">
<path d="M25.8526 23.4788C23.9507 20.191 21.0198 17.8335 17.5993 16.7159C19.2912 15.7088 20.6057 14.1741 21.341 12.3477C22.0762 10.5213 22.1915 8.50399 21.6692 6.60567C21.1469 4.70736 20.0158 3.03296 18.4497 1.83963C16.8836 0.646293 14.969 0 13 0C11.031 0 9.11641 0.646293 7.55029 1.83963C5.98417 3.03296 4.85311 4.70736 4.33079 6.60567C3.80848 8.50399 3.92379 10.5213 4.65903 12.3477C5.39427 14.1741 6.70878 15.7088 8.40069 16.7159C4.98024 17.8322 2.04932 20.1897 0.147403 23.4788C0.0776566 23.5925 0.0313942 23.719 0.0113455 23.8509C-0.00870317 23.9828 -0.00213203 24.1174 0.0306712 24.2467C0.0634745 24.376 0.121845 24.4974 0.20234 24.6038C0.282835 24.7102 0.383822 24.7993 0.499345 24.8661C0.614867 24.9328 0.742584 24.9757 0.874961 24.9923C1.00734 25.0088 1.14169 24.9987 1.2701 24.9625C1.3985 24.9263 1.51836 24.8648 1.62259 24.7815C1.72682 24.6983 1.81332 24.595 1.87698 24.4777C4.22971 20.412 8.3882 17.9846 13 17.9846C17.6118 17.9846 21.7703 20.412 24.123 24.4777C24.1867 24.595 24.2732 24.6983 24.3774 24.7815C24.4816 24.8648 24.6015 24.9263 24.7299 24.9625C24.8583 24.9987 24.9927 25.0088 25.125 24.9923C25.2574 24.9757 25.3851 24.9328 25.5007 24.8661C25.6162 24.7993 25.7172 24.7102 25.7977 24.6038C25.8782 24.4974 25.9365 24.376 25.9693 24.2467C26.0021 24.1174 26.0087 23.9828 25.9887 23.8509C25.9686 23.719 25.9223 23.5925 25.8526 23.4788ZM6.00675 8.99397C6.00675 7.61095 6.4169 6.25899 7.18532 5.10906C7.95375 3.95912 9.04595 3.06285 10.3238 2.53359C11.6016 2.00433 13.0078 1.86585 14.3643 2.13567C15.7209 2.40548 16.967 3.07147 17.945 4.04941C18.923 5.02735 19.589 6.27333 19.8589 7.62977C20.1287 8.98622 19.9902 10.3922 19.4609 11.67C18.9316 12.9477 18.0353 14.0398 16.8852 14.8082C15.7352 15.5765 14.3831 15.9866 13 15.9866C11.1459 15.9847 9.36827 15.2473 8.05722 13.9363C6.74616 12.6254 6.00873 10.8479 6.00675 8.99397Z" fill="#302F30"/>
</svg>
