<svg width="36" height="33" viewBox="0 0 36 33" fill="none" xmlns="http://www.w3.org/2000/svg">
<path fill-rule="evenodd" clip-rule="evenodd" d="M0 0H31.0003V4.58297H29.0003V1.83319H2.00002V22.9148H23.3872V24.748H0V0ZM30.0003 11.9157C30.7959 11.9157 31.559 11.626 32.1216 11.1103C32.6842 10.5946 33.0003 9.89522 33.0003 9.16593C33.0003 8.43664 32.6842 7.73723 32.1216 7.22154C31.559 6.70586 30.7959 6.41615 30.0003 6.41615C29.2046 6.41615 28.4416 6.70586 27.8789 7.22154C27.3163 7.73723 27.0003 8.43664 27.0003 9.16593C27.0003 9.89522 27.3163 10.5946 27.8789 11.1103C28.4416 11.626 29.2046 11.9157 30.0003 11.9157ZM32.0313 13.7581C33.3303 13.7581 34.3583 14.2934 35.0313 15.1201C35.6603 15.8946 35.9263 16.8525 35.9863 17.737C36.0458 18.6443 35.9109 19.5536 35.5893 20.4134C35.2893 21.2109 34.7823 22.0358 34.0003 22.6014V31.6225C34.001 31.9679 33.8599 32.3009 33.6049 32.5553C33.3499 32.8097 32.9998 32.9668 32.6242 32.9953C32.2486 33.0238 31.8751 32.9217 31.5779 32.7093C31.2807 32.4969 31.0816 32.1897 31.0203 31.8489L29.7303 24.748H29.4323L27.9743 31.8754C27.905 32.2118 27.7014 32.5124 27.4031 32.7185C27.1049 32.9245 26.7335 33.0212 26.3616 32.9896C25.9898 32.9579 25.6441 32.8003 25.3923 32.5475C25.1406 32.2946 25.0007 31.9648 25.0002 31.6225V18.5454C24.8002 18.8246 24.6029 19.1054 24.4082 19.3878L24.3302 19.5005L24.3102 19.5298L24.3052 19.5381C24.1704 19.7364 23.9827 19.9 23.7598 20.0134C23.5369 20.1268 23.2862 20.1862 23.0312 20.1861H18.0312C17.6333 20.1861 17.2518 20.0413 16.9705 19.7834C16.6892 19.5256 16.5312 19.1759 16.5312 18.8112C16.5312 18.4466 16.6892 18.0969 16.9705 17.839C17.2518 17.5812 17.6333 17.4364 18.0312 17.4364H22.2082C22.4512 17.0917 22.7712 16.6444 23.1072 16.1953C23.4572 15.7269 23.8432 15.231 24.1872 14.8424C24.3542 14.6527 24.5412 14.4547 24.7292 14.2924C24.8212 14.2127 24.9492 14.1091 25.1052 14.0175C25.3801 13.8509 25.7018 13.7611 26.0312 13.759L32.0313 13.7581Z" fill="#302F30"/>
</svg>
